<?xml version="1.0" ?><svg viewBox="0 0 64 64" xmlns="http://www.w3.org/2000/svg"><g id="flat"><path d="M32,10a4,4,0,1,1,4-4A4,4,0,0,1,32,10Zm0-6a2,2,0,1,0,2,2A2,2,0,0,0,32,4Z" style="fill:#fdab26"/><rect height="8" style="fill:#fdb62f" width="10" x="27" y="9"/><rect height="8" style="fill:#fdab26" width="4" x="33" y="9"/><circle cx="32" cy="38" r="23" style="fill:#dd4a43"/><path d="M44.435,18.656a26.658,26.658,0,0,1-28.892,35.4,23,23,0,1,0,28.892-35.4Z" style="fill:#d13e37"/><path d="M51.623,50H12.377a23.113,23.113,0,0,0,4.132,5H47.491A23.113,23.113,0,0,0,51.623,50Z" style="fill:#7ea82d"/><path d="M47.491,21H16.509a23.113,23.113,0,0,0-4.132,5H51.623A23.113,23.113,0,0,0,47.491,21Z" style="fill:#7ea82d"/><path d="M54.9,35.9,50,31l-6,6-6-6-6,6-6-6-6,6-6-6L9.1,35.9c-.063.692-.1,1.392-.1,2.1a23.01,23.01,0,0,0,.636,5.364L14,39l6,6,6-6,6,6,6-6,6,6,6-6,4.364,4.364A23.01,23.01,0,0,0,55,38C55,37.292,54.963,36.592,54.9,35.9Z" style="fill:#7ea82d"/></g></svg>