<?xml version="1.0" encoding="iso-8859-1"?>
<!-- Uploaded to: SVG Repo, www.svgrepo.com, Generator: SVG Repo Mixer Tools -->
<svg version="1.1" id="Layer_1" xmlns="http://www.w3.org/2000/svg" xmlns:xlink="http://www.w3.org/1999/xlink" 
	 viewBox="132.2 0 247.6 512" xml:space="preserve">
<g>
	<!-- left leg -->
	<path style="fill:black;" d="M167.724,512h-17.655c-4.875,0-8.828-3.953-8.828-8.828v-17.655h35.31v17.655
		C176.552,508.047,172.599,512,167.724,512z"/>
	<!-- right leg -->
	<path style="fill:black;" d="M361.931,512h-17.655c-4.875,0-8.828-3.953-8.828-8.828v-17.655h35.31v17.655
		C370.759,508.047,366.806,512,361.931,512z"/>
</g>
<!-- doors -->
<path style="fill:#21A366;" d="M361.931,494.345H150.069c-9.751,0-17.655-7.904-17.655-17.655V17.655
	C132.414,7.904,140.318,0,150.069,0h211.862c9.751,0,17.655,7.904,17.655,17.655V476.69
	C379.586,486.441,371.682,494.345,361.931,494.345z"/>
	<!-- interdoor -->
<rect x="132.414" y="158.897" style="fill:#185C37;" width="247.172" height="17.655"/>
<g>
	<!-- top handle -->
	<path style="fill:aliceblue;" d="M353.103,141.241h-70.621c-4.875,0-8.828-3.953-8.828-8.828l0,0c0-4.875,3.953-8.828,8.828-8.828
		h70.621c4.875,0,8.828,3.953,8.828,8.828l0,0C361.931,137.289,357.978,141.241,353.103,141.241z"/>
	<!-- bottom handle -->
	<path style="fill:aliceblue;" d="M282.483,194.207h70.621c4.875,0,8.828,3.953,8.828,8.828l0,0c0,4.875-3.953,8.828-8.828,8.828
		h-70.621c-4.875,0-8.828-3.953-8.828-8.828l0,0C273.655,198.159,277.608,194.207,282.483,194.207z"/>
</g>
<!-- bottom -->
<path style="fill:#185C37;" d="M132.414,476.69c0,9.75,7.905,17.655,17.655,17.655h211.862c9.75,0,17.655-7.905,17.655-17.655
	v-17.655H132.414V476.69z"/>
</svg>